<svg height="512" viewBox="0 0 64 64" width="512" xmlns="http://www.w3.org/2000/svg"><path d="m61 2h-4a1 1 0 0 0 -1 1v12h-.884a2.862 2.862 0 0 0 .884-2c0-2.28-3.01-4-7-4a9.674 9.674 0 0 0 -5.453 1.435 2.991 2.991 0 0 0 -2.547-1.435h-28a3 3 0 0 0 -3 3v3h-7a1 1 0 0 0 -1 1v45a1 1 0 0 0 1 1h4a1 1 0 0 0 1-1v-4h12v4a1 1 0 0 0 1 1h4a1 1 0 0 0 1-1v-4h30v4a1 1 0 0 0 1 1h4a1 1 0 0 0 1-1v-58a1 1 0 0 0 -1-1zm-12 9c3.052 0 5 1.185 5 2s-1.948 2-5 2-5-1.185-5-2 1.948-2 5-2zm-9 0h1a1 1 0 0 1 1 1v3h-2zm-8 0h6v4h-6zm-20 1a1 1 0 0 1 1-1h17v4h-18zm-6 48h-2v-39h2zm14-5h-12v-2h12zm0-4h-12v-2h12zm0-4h-12v-2h12zm-12-4v-4h2.184a2.966 2.966 0 0 0 -.184 1v3zm12 0h-8v-3a1 1 0 0 1 1-1h7zm0-6h-12v-2h12zm0-4h-12v-3h12zm0-5h-12v-2h12zm0-4h-12v-3h12zm4 36h-2v-39h2zm14-5h-12v-2h8v-2h-8v-2h12zm18 0h-16v-6h16zm0-8h-30v-2h30zm-30-4v-4h4v4zm6 0v-4h6v4zm8 0v-4h1a1 1 0 0 1 1 1v3zm4-2c0-.815 1.948-2 5-2s5 1.185 5 2-1.948 2-5 2-5-1.185-5-2zm12 0v2h-.884a2.862 2.862 0 0 0 .884-2c0-2.28-3.01-4-7-4a9.674 9.674 0 0 0 -5.453 1.435 2.991 2.991 0 0 0 -2.547-1.435h-15v-16h30zm0-22h-52v-2h52zm4 41h-2v-56h2z"/><path d="m44 51h8v2h-8z"/></svg>