<svg height="512pt" viewBox="0 -47 512 512" width="512pt" xmlns="http://www.w3.org/2000/svg"><path d="m463.871094 288.679688c-.652344 0-1.3125-.0625-1.960938-.191407-.640625-.128906-1.261718-.320312-1.871094-.570312-.597656-.25-1.179687-.558594-1.71875-.921875-.550781-.367188-1.0625-.777344-1.519531-1.25-.472656-.457032-.882812-.96875-1.25-1.519532-.363281-.539062-.671875-1.117187-.921875-1.71875-.25-.601562-.441406-1.230468-.570312-1.871093-.128906-.648438-.199219-1.296875-.199219-1.957031 0-2.632813 1.070313-5.210938 2.941406-7.070313.457031-.460937.96875-.882813 1.519531-1.242187.539063-.359376 1.117188-.667969 1.71875-.917969.609376-.25 1.242188-.441407 1.871094-.570313 1.289063-.261718 2.621094-.261718 3.910156 0 .640626.128906 1.269532.320313 1.867188.570313.601562.25 1.191406.558593 1.730469.917969.550781.359374 1.0625.78125 1.519531 1.242187 1.863281 1.859375 2.933594 4.4375 2.933594 7.070313 0 .660156-.070313 1.308593-.199219 1.957031-.132813.640625-.320313 1.269531-.570313 1.871093-.25.601563-.5625 1.179688-.921874 1.71875-.359376.550782-.78125 1.0625-1.238282 1.519532-.460937.472656-.972656.882812-1.519531 1.25-.542969.363281-1.132813.671875-1.730469.921875-.601562.25-1.230468.441406-1.871094.570312-.640624.128907-1.300781.191407-1.949218.191407zm0 0"/><path d="m469.121094 189.410156h-268.214844v-19.882812c0-26.292969-21.390625-47.683594-47.683594-47.683594h-79.496094v-58.117188c0-35.136718-28.585937-63.726562-63.726562-63.726562-5.523438 0-10 4.476562-10 10v338.503906c0 5.523438 4.476562 10 10 10h5.535156v49.03125c0 5.523438 4.480469 10 10 10h45.070313c5.523437 0 10-4.476562 10-10v-49.03125h350.789062v49.03125c0 5.523438 4.476563 10 10 10h45.066407c5.523437 0 10-4.476562 10-10v-49.03125h5.539062c5.523438 0 10-4.476562 10-10v-116.226562c0-23.636719-19.234375-42.867188-42.878906-42.867188zm22.878906 149.09375h-472v-49.820312h160.90625v21.929687c0 5.523438 4.480469 10 10 10h301.09375zm-311.09375-129.09375v59.273438h-160.90625v-59.273438zm311.09375 22.867188v68.335937h-291.09375v-11.929687h226.214844c5.523437 0 10-4.480469 10-10 0-5.523438-4.476563-10-10-10h-226.214844v-59.273438h268.214844c12.617187 0 22.878906 10.257813 22.878906 22.867188zm-338.777344-90.433594c15.265625 0 27.6875 12.417969 27.6875 27.683594v19.882812h-107.183594v-47.566406zm-133.222656-120.691406c19.308594 4.535156 33.726562 21.902344 33.726562 42.574218v125.683594h-33.726562zm40.605469 376.382812h-25.070313v-39.03125h25.070313zm415.859375 0h-25.070313v-39.03125h25.070313zm0 0"/></svg>